<mxfile host="65bd71144e">
    <diagram id="F8dwc5vwZnQrvOngjXV9" name="Page-1">
        <mxGraphModel dx="1198" dy="518" grid="1" gridSize="10" guides="1" tooltips="1" connect="1" arrows="1" fold="1" page="1" pageScale="1" pageWidth="1169" pageHeight="827" background="#ffffff" math="0" shadow="0">
            <root>
                <mxCell id="0"/>
                <mxCell id="1" parent="0"/>
                <mxCell id="2" value="NextJS App&lt;br&gt;- Has Remotion Lib&lt;br&gt;- Has RemotionPlayer" style="rounded=1;whiteSpace=wrap;html=1;glass=0;align=center;verticalAlign=top;sketch=1;curveFitting=1;jiggle=2;" vertex="1" parent="1">
                    <mxGeometry y="110" width="270" height="260" as="geometry"/>
                </mxCell>
                <mxCell id="5" value="Remotion Template 1" style="ellipse;whiteSpace=wrap;html=1;aspect=fixed;sketch=1;curveFitting=1;jiggle=2;" vertex="1" parent="1">
                    <mxGeometry x="640" y="40" width="80" height="80" as="geometry"/>
                </mxCell>
                <mxCell id="6" value="Remotion Template 2" style="ellipse;whiteSpace=wrap;html=1;aspect=fixed;sketch=1;curveFitting=1;jiggle=2;" vertex="1" parent="1">
                    <mxGeometry x="640" y="150" width="80" height="80" as="geometry"/>
                </mxCell>
                <mxCell id="7" value="Remotion Template n" style="ellipse;whiteSpace=wrap;html=1;aspect=fixed;sketch=1;curveFitting=1;jiggle=2;" vertex="1" parent="1">
                    <mxGeometry x="640" y="360" width="80" height="80" as="geometry"/>
                </mxCell>
                <mxCell id="12" style="edgeStyle=none;html=1;entryX=1;entryY=0.5;entryDx=0;entryDy=0;sketch=1;curveFitting=1;jiggle=2;" edge="1" parent="1" source="8" target="10">
                    <mxGeometry relative="1" as="geometry"/>
                </mxCell>
                <mxCell id="8" value="RemotionPlayer&lt;br&gt;&lt;pre style=&quot;text-align: left;&quot;&gt;{&lt;br&gt;component: &quot;Dynamic Template&quot;&lt;br&gt;inputProps:{...props}&lt;br&gt;}&lt;/pre&gt;" style="rounded=1;whiteSpace=wrap;html=1;glass=0;sketch=1;curveFitting=1;jiggle=2;" vertex="1" parent="1">
                    <mxGeometry x="20" y="190" width="230" height="140" as="geometry"/>
                </mxCell>
                <mxCell id="13" style="edgeStyle=none;html=1;entryX=0;entryY=0.5;entryDx=0;entryDy=0;sketch=1;curveFitting=1;jiggle=2;" edge="1" parent="1" source="10" target="5">
                    <mxGeometry relative="1" as="geometry"/>
                </mxCell>
                <mxCell id="14" style="edgeStyle=none;html=1;entryX=0;entryY=0.5;entryDx=0;entryDy=0;sketch=1;curveFitting=1;jiggle=2;" edge="1" parent="1" source="10" target="6">
                    <mxGeometry relative="1" as="geometry"/>
                </mxCell>
                <mxCell id="15" style="edgeStyle=none;html=1;entryX=0;entryY=0.5;entryDx=0;entryDy=0;sketch=1;curveFitting=1;jiggle=2;" edge="1" parent="1" source="10" target="7">
                    <mxGeometry relative="1" as="geometry"/>
                </mxCell>
                <mxCell id="10" value="Any One" style="triangle;whiteSpace=wrap;html=1;glass=0;direction=west;sketch=1;curveFitting=1;jiggle=2;" vertex="1" parent="1">
                    <mxGeometry x="330" y="220" width="60" height="80" as="geometry"/>
                </mxCell>
                <mxCell id="16" value="" style="ellipse;whiteSpace=wrap;html=1;aspect=fixed;glass=0;sketch=1;curveFitting=1;jiggle=2;" vertex="1" parent="1">
                    <mxGeometry x="670" y="250" width="20" height="20" as="geometry"/>
                </mxCell>
                <mxCell id="17" value="" style="ellipse;whiteSpace=wrap;html=1;aspect=fixed;glass=0;sketch=1;curveFitting=1;jiggle=2;" vertex="1" parent="1">
                    <mxGeometry x="670" y="280" width="20" height="20" as="geometry"/>
                </mxCell>
                <mxCell id="18" value="" style="ellipse;whiteSpace=wrap;html=1;aspect=fixed;glass=0;sketch=1;curveFitting=1;jiggle=2;" vertex="1" parent="1">
                    <mxGeometry x="670" y="310" width="20" height="20" as="geometry"/>
                </mxCell>
            </root>
        </mxGraphModel>
    </diagram>
</mxfile>